<?xml version="1.0" ?><svg style="enable-background:new 0 0 24 24;" version="1.1" viewBox="0 0 24 24" xml:space="preserve" xmlns="http://www.w3.org/2000/svg" xmlns:xlink="http://www.w3.org/1999/xlink"><style type="text/css">
	.st0{display:none;}
	.st1{display:inline;}
	.st2{opacity:0.2;fill:none;stroke:#000000;stroke-width:5.000000e-02;stroke-miterlimit:10;}
</style><g class="st0" id="grid_system"/><g id="_icons"><g><path d="M20.5,6.4C19.8,5.5,18.8,5,17.7,5H6.2L6,3.8C5.9,3.4,5.5,3,5,3H3C2.4,3,2,3.4,2,4s0.4,1,1,1h1.2l0.2,1.2c0,0,0,0,0,0    l1.2,7c0,0,0,0,0,0l0.2,1.2C6,15.9,7.3,17,8.8,17h9.6c0.6,0,1-0.4,1-1s-0.4-1-1-1H8.8c-0.5,0-1-0.4-1.1-0.9l0-0.1h9.4    c1.6,0,2.9-1,3.4-2.5l0.6-2C21.4,8.4,21.1,7.3,20.5,6.4z M19.1,8.9C19.1,8.9,19.1,8.9,19.1,8.9l-0.6,2c-0.2,0.6-0.8,1.1-1.4,1.1    H7.3L6.5,7h11.2c0.5,0,0.9,0.2,1.2,0.6S19.3,8.5,19.1,8.9z"/><circle cx="8.5" cy="19.5" r="1.5"/><circle cx="16.5" cy="19.5" r="1.5"/></g></g></svg>