<svg xmlns="http://www.w3.org/2000/svg" xmlns:svg="http://www.w3.org/2000/svg" id="svg2" width="32" height="32" enable-background="new 0 0 32 32" version="1.1" viewBox="0 0 32 32" xml:space="preserve"><g id="background"><rect width="32" height="32" fill="none"/></g><g id="buy"><path fill="none" stroke="#000" stroke-width="2" d="M32,5h-4c0,0,0-4-4-4s-8,0-8,0s-2,0-2,2s2,2,2,2h6c0,3,4,3,4,3"/><path fill="none" stroke="#000" stroke-width="2" d="M14,4H5c0,0-2,0-2,2s2,2,2,2h10"/><path fill="none" stroke="#000" stroke-width="2" d="M14,16H5c0,0-2,0-2,2s2,2,2,2h19c3,0,3-2,3-2h5"/><path fill="none" stroke="#000" stroke-width="2" d="M12,8H3c0,0-2,0-2,2s2,2,2,2h10"/><path fill="none" stroke="#000" stroke-width="2" d="M12,12H3c0,0-2,0-2,2s2,2,2,2h10"/><circle cx="19" cy="15" r="3"/><circle cx="15" cy="21" r="3"/><circle cx="21" cy="26" r="3"/></g></svg>