<?xml version="1.0" ?><svg enable-background="new 0 0 32 32" height="32px" id="svg2" version="1.1" viewBox="0 0 32 32" width="32px" xml:space="preserve" xmlns="http://www.w3.org/2000/svg" xmlns:cc="http://creativecommons.org/ns#" xmlns:dc="http://purl.org/dc/elements/1.1/" xmlns:inkscape="http://www.inkscape.org/namespaces/inkscape" xmlns:rdf="http://www.w3.org/1999/02/22-rdf-syntax-ns#" xmlns:sodipodi="http://sodipodi.sourceforge.net/DTD/sodipodi-0.dtd" xmlns:svg="http://www.w3.org/2000/svg"><g id="background"><rect fill="none" height="32" width="32"/></g><g id="buy"><path d="M32,5h-4c0,0,0-4-4-4s-8,0-8,0s-2,0-2,2s2,2,2,2h6c0,3,4,3,4,3" fill="none" stroke="#000000" stroke-width="2"/><path d="M14,4H5c0,0-2,0-2,2s2,2,2,2h10" fill="none" stroke="#000000" stroke-width="2"/><path d="M14,16H5c0,0-2,0-2,2s2,2,2,2h19c3,0,3-2,3-2h5" fill="none" stroke="#000000" stroke-width="2"/><path d="M12,8H3c0,0-2,0-2,2s2,2,2,2h10" fill="none" stroke="#000000" stroke-width="2"/><path d="M12,12H3c0,0-2,0-2,2s2,2,2,2h10" fill="none" stroke="#000000" stroke-width="2"/><circle cx="19" cy="15" r="3"/><circle cx="15" cy="21" r="3"/><circle cx="21" cy="26" r="3"/></g></svg>